<svg xmlns="http://www.w3.org/2000/svg" version="1.1" xmlns:xlink="http://www.w3.org/1999/xlink" xmlns:svgjs="http://svgjs.com/svgjs" width="1440" height="560" preserveAspectRatio="none" viewBox="0 0 1440 560"><g mask="url(&quot;#SvgjsMask1002&quot;)" fill="none"><rect width="1440" height="560" x="0" y="0" fill="rgba(24, 106, 59, 1)"></rect><path d="M0,329.844C82.339,328.87,167.727,413.21,238.489,371.097C308.64,329.348,291.686,221.853,313.594,143.214C331.765,77.987,369.056,15.262,356.136,-51.205C343.435,-116.545,280.728,-156.033,244.565,-211.916C200.864,-279.448,195.82,-383.019,121.5,-413.792C48.157,-444.161,-27.688,-375.838,-104.686,-356.529C-185.752,-336.2,-279.434,-351.446,-343.085,-297.284C-409.265,-240.97,-439.726,-150.914,-447.984,-64.41C-456.035,19.929,-424.218,100.598,-388.397,177.375C-352.824,253.62,-320.459,346.037,-242.142,376.781C-164.029,407.445,-83.91,330.836,0,329.844" fill="#13522d"></path><path d="M1440 1204.569C1558.526 1201.362 1627.684 1070.983 1730.992 1012.793 1843.174 949.605 2002.324 956.905 2071.96 848.607 2142.058 739.591 2097.6530000000002 596.365 2081.442 467.775 2064.957 337.01099999999997 2080.02 176.86399999999998 1976.925 94.75200000000001 1872.0430000000001 11.216000000000008 1714.283 100.88099999999997 1583.526 71.197 1465.096 44.31200000000001 1376.226-80.14599999999996 1255.289-69.06899999999996 1130.003-57.59299999999996 1013.6120000000001 25.326000000000022 943.5419999999999 129.817 876.235 230.18900000000002 886.13 359.61199999999997 886.786 480.46 887.36 586.116 902.993 689.088 947.101 785.0989999999999 991.133 880.944 1058.382 960.461 1138.708 1028.82 1229.083 1105.731 1321.371 1207.779 1440 1204.569" fill="#1e8249"></path></g><defs><mask id="SvgjsMask1002"><rect width="1440" height="560" fill="#ffffff"></rect></mask></defs></svg>